Coordinates
version=1
nRows=16
nColumns=22
inDegrees=yes

Units are S.I. units (second, meters, Newtons, ...)
If the header above contains a line with 'inDegrees', this indicates whether rotational values are in degrees (yes) or radians (no).

endheader
time	pelvis_tilt	pelvis_list	pelvis_rotation	pelvis_tx	pelvis_ty	pelvis_tz	hip_flexion_r	hip_adduction_r	hip_rotation_r	knee_angle_r	ankle_angle_r	subtalar_angle_r	hip_flexion_l	hip_adduction_l	hip_rotation_l	knee_angle_l	ankle_angle_l	subtalar_angle_l	lumbar_extension	lumbar_bending	lumbar_rotation
      0.01000000	    -11.05376282	     -3.74735164	     -0.06471137	     -1.06002003	      0.97907320	     -0.23459140	     18.50200037	      5.61703773	      1.48829482	    -18.06519725	     14.92134381	    -12.09052980	     19.76231272	     -1.81186194	     -2.85516879	    -19.97773351	     19.77069223	     -0.08700898	      5.74358215	      4.08032346	      3.87353534
      0.02000000	    -11.06445132	     -3.73668028	     -0.09661415	     -1.06000246	      0.97906961	     -0.23450966	     18.51619090	      5.61743903	      1.51026260	    -18.07214931	     14.90377652	    -12.09171974	     19.75398095	     -1.81179258	     -2.87834788	    -19.94988130	     19.77807037	     -0.08946535	      5.75330427	      4.08309187	      3.83580486
      0.03000000	    -11.10657140	     -3.70298301	     -0.16826527	     -1.05997061	      0.97902864	     -0.23434858	     18.55461032	      5.61059582	      1.60885882	    -18.06375668	     14.88367628	    -12.10053021	     19.77109408	     -1.80376729	     -2.95644991	    -19.91868080	     19.76695809	     -0.09591824	      5.80496714	      4.06038387	      3.83918785
      0.04000000	    -11.15816801	     -3.67161977	     -0.24150180	     -1.05996889	      0.97896705	     -0.23419530	     18.61625788	      5.60517939	      1.69364928	    -18.07687573	     14.88251735	    -12.11100262	     19.79765105	     -1.79822791	     -3.03786400	    -19.88213907	     19.75635162	     -0.09755061	      5.86058885	      4.04751979	      3.82908341
      0.05000000	    -11.21703082	     -3.63863471	     -0.31578108	     -1.05994955	      0.97890057	     -0.23403257	     18.67889428	      5.59907184	      1.78131189	    -18.07948378	     14.87228621	    -12.11649304	     19.82925633	     -1.79126813	     -3.11411120	    -19.84394533	     19.74414777	     -0.09651511	      5.93085421	      4.03081439	      3.81148221
      0.06000000	    -11.28584109	     -3.60652647	     -0.39426666	     -1.05995323	      0.97882051	     -0.23387845	     18.75678328	      5.59369151	      1.87027639	    -18.08789740	     14.86440423	    -12.12068109	     19.87135980	     -1.78601162	     -3.19603667	    -19.80308779	     19.73071775	     -0.09463202	      6.00900184	      4.01908880	      3.79633875
      0.07000000	    -11.35613447	     -3.57577875	     -0.46751168	     -1.05992724	      0.97874554	     -0.23373370	     18.82432834	      5.58799968	      1.95494690	    -18.07722574	     14.85139124	    -12.12129939	     19.91261900	     -1.78017363	     -3.27084190	    -19.76173906	     19.71740886	     -0.09320568	      6.09736419	      4.00658466	      3.77207133
      0.08000000	    -11.43834488	     -3.54722732	     -0.54266172	     -1.05992414	      0.97865542	     -0.23359528	     18.90525147	      5.58482437	      2.04210223	    -18.06511991	     14.83586285	    -12.12079455	     19.96775907	     -1.77681146	     -3.34795294	    -19.71903826	     19.70140022	     -0.09193140	      6.19827644	      3.99782662	      3.75297804
      0.09000000	    -11.55103064	     -3.52530641	     -0.61807869	     -1.05997976	      0.97850811	     -0.23346973	     19.03585686	      5.58780387	      2.12147459	    -18.08009085	     14.82074609	    -12.11984315	     20.06617049	     -1.77941849	     -3.41875707	    -19.68997163	     19.68627002	     -0.08832881	      6.32935283	      3.99914274	      3.73594576
      0.10000000	    -11.59368141	     -3.51395027	     -0.65445103	     -1.05994445	      0.97849277	     -0.23341194	     19.05139486	      5.58513824	      2.14625497	    -18.02616173	     14.81328869	    -12.11735789	     20.07605876	     -1.77967694	     -3.46023341	    -19.63508446	     19.68485246	     -0.08805436	      6.38855597	      4.00486187	      3.67492249
      0.11000000	    -11.74705835	     -3.49918460	     -0.73304954	     -1.06000269	      0.97829821	     -0.23330075	     19.20475460	      5.59687028	      2.25234770	    -18.00306733	     14.76557355	    -12.11279933	     20.22417887	     -1.78941996	     -3.52534747	    -19.61948187	     19.65650761	     -0.08474789	      6.57843788	      4.01616031	      3.67254760
      0.12000000	    -11.82626142	     -3.48961220	     -0.76153247	     -1.06000203	      0.97823363	     -0.23327500	     19.24165463	      5.59473950	      2.30814561	    -17.91483555	     14.74036411	    -12.10767922	     20.28787441	     -1.78500797	     -3.53744148	    -19.58866113	     19.64078614	     -0.08086061	      6.68548360	      4.02372528	      3.61843105
      0.13000000	    -11.97598211	     -3.49689953	     -0.81003762	     -1.06006733	      0.97804445	     -0.23321936	     19.38354373	      5.61559014	      2.35204291	    -17.87650245	     14.69659618	    -12.10664968	     20.43730093	     -1.80817089	     -3.57672527	    -19.57275776	     19.62938902	     -0.07500468	      6.87335486	      4.05556279	      3.58173812
      0.14000000	    -12.05535619	     -3.49306932	     -0.83128185	     -1.06007386	      0.97798310	     -0.23322495	     19.41188670	      5.61536946	      2.40614155	    -17.77263120	     14.66706558	    -12.10278547	     20.50281256	     -1.80614515	     -3.58071607	    -19.54204274	     19.61086701	     -0.07069818	      6.98334135	      4.06985196	      3.52862062
      0.15000000	    -12.21504142	     -3.51116784	     -0.86525018	     -1.06015136	      0.97777679	     -0.23320842	     19.55320057	      5.64046850	      2.43091023	    -17.71195904	     14.61572497	    -12.10659320	     20.67226544	     -1.83486475	     -3.60363321	    -19.53862797	     19.60359537	     -0.06497310	      7.18763521	      4.11221396	      3.49319892
      0.16000000	    -12.29204931	     -3.50995903	     -0.88078977	     -1.06016077	      0.97771841	     -0.23322971	     19.57283457	      5.64135226	      2.49168415	    -17.59850589	     14.58542984	    -12.10361813	     20.73584454	     -1.83331487	     -3.59877786	    -19.50663043	     19.58168856	     -0.06155358	      7.29677236	      4.12630628	      3.43795049
